<svg xmlns="http://www.w3.org/2000/svg" width="610" height="156"><path d="m497.777.483 1.2.724-.24.724-1.686.724-.241-.241v-.482zm-7.224 4.347 1.926.97-.722 2.656-2.168-.241-.722-1.69.482-.966zm-65.985 85.486 13.967-1.449c4.887-2.806 5.284-10.39 8.188-15.455l12.764-18.836C465.059 45.1 468.272 36.72 476.1 29.7l-4.575-1.69 7.706-.966 8.67-12.8 3.612-.483 1.927-4.105.966.244.481 2.9 3.131-7.245.723-.241h.24c.031 8.512-2.214 10.522-2.408 17.87h.727c4.31 1.637 30.514-3.51 31.547-4.105.433-1.985.455-4.3 1.927-5.313l.481 6.037c10.145-2.125 23.073 3.989 30.1-.241h-1.445v-.485l.482-1.207h.963l.241 1.69c3.451-1.135 10.736-1.748 14.208.241q.122.724.241 1.449c3.052-.169 5.622-.333 7.706.724l-.24.483c-.972.883-.838.582-.964 1.932l15.895 1.932c-2.605 1.114-6.215.574-9.633.483v.724l-.241.483 5.057.483.482.483c-.735 1.246-.913.817-.963 2.415l12.28 1.208c-3.041 1.662-9.207.023-13 .966-3.57.887-8.969 2.675-12.041 4.83-1.078.756-18.531 1.483-21.674 2.9-1.744.785-13.327 18.961-14.208 21.975l5.539 1.691c3.748-4.153 10.254-2.259 14.93-1.449l-.481 2.173h.722l11.319.966L564 68.341c-3.28 1.459-8.049 5.057-11.318 6.037-6.515 1.953-12.666-.516-17.34 2.656l-8.428 12.8c-3.055 3.771-7.8 5.3-8.911 11.108v.242c13.432-1.126 23.962-3.928 37.809-6.762l12.764 1.207c5.028-1.719 12.289-5.863 19.265-2.415v1.207c2.292.175 5.563-.211 7.466.724v.483l-1.445 1.449.963.725c5.774.661 10.149.251 14.931 1.69-.2.084-21.915 1.691-21.915 1.691l.964-.242-13.245 2.9.722.966c-11.459-.137-19.618 3.628-27.935 5.554l-11.56 1.208-19.025 5.071-10.6 1.449-3.612 3.139v-1.207l-1.445.241c-2.919 4.34-5.545 10.882-9.633 14.006h-.241q.122-.483.241-.966c3.1-4.18 7.42-10.534 7.947-16.662-3.578-.079-7.22-1.059-8.669-3.381l.241-3.139h-.241l-3.613.483-6.737 9.657-1.686 11.35-6.984 12.316-.963-.483-5.3 9.418-.482-1.449-1.2.483-1.927 3.622h-1.926v-.724c2.023-2.3 2.908-6.624 2.89-10.867l.963.724c.158-5.655 2.578-10.92 4.575-15.213l-1.2.483c1.858-9.992 9.83-17.539 10.6-27.771l-6.261 1.207c-1.279 2.449-.2 5.8-.963 8.694-2.145 8.15-6.931 16.2-11.078 23.182l-.963.242-.241-.242v-2.415c-3.629 4.9-4.595 13.728-9.392 17.387h-.241l.241-.483 4.816-12.8c2.192-8.673 1.636-14.429 3.853-22.942l-1.444.725v-1.449l3.371-11.591-8.429.724c-1.334-.559-1.461-1.89-4.094-1.207-4.261 1.1-12.384 13.588-15.653 17.145h-.722l.24-2.656h-.481l-11.56 14.006c-.821-.584-.469.028-.722-1.207 6.885-6.629 10.734-17 13.967-26.081v-.241c-6.6-1.467-8.379 1.3-15.412 1.449-2.089 4.4-5.048 7.367-7.225 11.108l-6.02 13.523-.241-.241.482-4.347-.723.241a87.557 87.557 0 0 1-12.282 23.425h-.722c1.541-6.462 5.578-11.013 7.465-16.663 2.255-6.751 1.8-11.525 3.853-19.077l5.3-12.316c-4.557-.048-15.443.394-16.375 2.173l-.964 13.04-.963.242-.241-.242c.029-3.168.021-9.4-1.686-11.108a4.433 4.433 0 0 1-2.408 3.139h-.241l-.24-.483 2.167-5.312h-.241c-3.281 2.393-3.938 6.878-7.706 8.935l-.241-.725c1.714-4.606 8.733-11.379 6.021-16.662l-1.2.724-1.2-10.142c-1.274 7.477-6.881 10.2-9.632 15.455-1.362 2.6-.481 4.965-1.445 8.452-.874 3.158-10.16 14.752-12.764 15.938l-.482-2.415h-.24c-1.417 3.412-6.631 13.087-10.115 14.248l.241-.483 6.261-12.558c1.128-3.284.357-5.242.723-7.969.291-2.167 2.557-4.841 3.13-7.727l-1.445.241 6.007-12.555c1.438-3.413 1.212-5.306 1.686-8.452l6.743-14.972c2.388-6.327 1.482-13.811 4.816-20.043 2.184-4.081 7.571-6.773 10.115-11.108-1.543-.41-1.577-.632-1.686-2.415.926-1.144 1.386-1.465 3.126-1.208.305.934.481 2.071 1.2 2.656 3.211.881 3.574-4.8 6.5-3.381.948-1.57 1.181-3.231 2.89-4.105h.241c-.275 7.557-1.83 19.552-2.649 26.081l1.444 7.486-1.685 1.932c1.348 4.561 2.174 9.549.241 14.006 3.971-4.362 6.982-9.526 11.559-13.282 8.384-6.88 19.255-14.32 25.527-23.183q1.686-7 3.371-14.006c2.249-6.083 8.592-11.739 13.968-14.489l3.853 1.69 2.649-1.932q.122.845.241 1.69c2.774-1.227 2.494-4.029 5.539-4.83-1.638 9.452-8.393 19.48-11.559 27.529-4.012 10.2-6.992 17.755-12.282 26.322-4.548 7.376-13.348 13.476-13.48 24.875zm36.845-84.279 1.687.242-.482 1.69h-1.685V6.762zm-8.188 2.656 1.927.241.241 2.173a4.4 4.4 0 0 1-2.89 1.449l-.241-.966-.241-1.69zm-231.67.483.964.241v.966l-1.2.483-.241-.724zm306.807 0 .963.241v.966l-1.2.483-.241-.724zm-71.283 1.932h.721l-.241 1.932-1.2.242h-.241v-1.449zM81.157 27.288c5.787-.834 10.439.155 15.894 1.69l1.2-.724v-.242l-3.371-.241v-1.449l6.261-.724c-2.911-1.353-7.316-.72-9.633-2.415V22.7l.241-.241 31.547-.725c6.172.776 10.808 2.761 16.135 3.622.315-1.494.213-1.543 1.686-1.932l.963 1.932 1.927-7h.482c.871 3.146-.325 7.121.241 9.659l10.6 10.625c4.2 5.881 4.761 10.727 7.224 19.077 3.612-6.142 3.7-13.386 6.262-21.251l3.612-4.347v-.243l-4.094-.242 4.094-1.449-7.706-2.173 16.378-2.656c4.28-1.236 7.276-3.945 10.836-5.071-.333 1.64-.833 2.363 0 3.139 5.037 1.191 11.96-2.006 15.9-2.656l7.224.966c3.285-.451 4.553-1.832 6.743-2.415l1.686-5.554.482.483.481 5.554c8.336-1.861 16.681.937 23.6 1.69 6.8.74 13.178-5.608 20.951-1.69l.241 1.449c3.052-.169 5.622-.333 7.706.724l-.24.483-1.2.966.241.966 15.654 1.69.24.241c-5.731 2.644-15.515-1.213-21.192 1.449l-1.453.484.964-.725c-.923-.278-4.776 1.6-5.058 2.173 2.388 1.874 2.383 1.445 6.021 1.932l.481.724c-1.22 2.175-2.232 2.549-1.444 5.071h.24l20.47-7.245-1.926.724 1.2.483c3.572-3.069 13.344-3.6 19.506-3.622l-.481-1.207c5.368.324 11.5.57 15.653 2.173 9.567 3.695 25.28 16.667 16.857 31.393-8.865 15.5-22.929 23.453-38.772 32.118v.483l10.115 8.935q1.684 3.743 3.371 7.486l6.5 2.173 4.335 5.8-.963 3.139 3.371 4.1v.483l-2.408.966c.953 2.6 9.024 11.129 6.984 12.075l-8.91-9.66-4.817-2.173h.963c-3.788-1.778-6.771-5.033-10.114-4.106-1.426-3.464-6.979-9.5-10.355-10.866l-5.78-1.691c-2.622-2.035-11.873-13.544-16.135-12.316h-.238c-5.289 2.049-4.193 9.175-6.02 14.49l-6.262 9.418-1.686-.483-4.334 7.486c-.85-.845-.662-1.1-2.168-1.449l-.241.241-10.355 14.731-.241-.725 8.67-14.972c2.07-5.864 2.253-11.711 3.853-17.145h-1.2l8.91-18.112-.722-.483h-.241C255.332 115.336 193.439 144.739 205.9 85l-2.89 4.83c-.784-1.943 7.973-26.676 9.151-28.978l-1.685-.242c5-12.3 20.165-22.866 32.029-28.978-7.893.752-11.79 2.673-19.747 2.415-6.315 18.52-16.948 31.44-26.732 46.365l-6.02 14.006-7.947 15.455-7.459 10.387-1.2 9.66-7.465 14.006-.964-.483c-1.867 2.852-2.857 7.636-5.779 9.418-.237-1.4.092-.9-.963-1.449l-.241.241-1.927 3.864h-1.926v-.724c4.109-4.736 5.312-18.729 8.428-25.356l-1.2.483c1.311-8.535 6.839-16.554 9.874-23.908q1.2-4.95 2.408-9.9c8.594-19.716 23.26-38.014 29.862-58.44-19.04.1-14.033 8.937-21.192 20.285C168.14 80.4 162.8 110.41 145.938 129.678h-.482l-.241-2.415c-4.146 3.327-5.723 13.087-10.837 14.972 1.256-4.955 4.35-8.361 6.021-12.557 2.416-6.068 3.037-12.287 5.3-18.111h-1.445l7.947-19.8c.455-1.457-.044-1.911-.482-2.9 1.122-5.6 3.74-10.554 5.3-16.18-10.178 14.284-22.514 26.505-37.568 35.74-8.606 5.28-17.065 8.4-24.8 14.248-3.059 2.31-6.522 4.279-9.874 6.762-4.278 3.168-6.6 9.3-11.8 11.832v-1.932h-.731c-1.813 2.751-6.28 9.95-9.392 11.109l6.984-13.765c-4.724 1.741-21.788 8.988-24.082 8.935v-.241l.244-.483a8.513 8.513 0 0 0 4.094-3.14c-8.91 2.576-16.554 7.306-26.49 10.143l-.241-.725.241-.241c10.574-5.049 20.682-8.963 30.1-14.972l6.984-5.8c5.05-3.142 11.99-4.438 15.653-8.935 2.022-2.482 2.224-6.855 3.853-10.142l-1.445.483-.963-1.932c-1.387 1.5-2.848 3.2-5.3 3.622l4.094-5.8h-.48c-3.4 2.874-7.59 2.388-12.764 3.14-8.685 1.261-34.011 5.793-38.291 10.866H24.8l-.241-1.448c-5.068 1.475-7.005 11.2-11.078 14.247 1.657-6.431 6.018-10.678 8.188-17.387-3.661-.859-6.653-1.239-8.91-3.381l.241-3.38H9.392l3.853-1.932-7.706-1.678c6.9-1.938 16.343-.816 20.951-5.071 4.244-3.918 12.2-19.976 14.449-26.322l-3.131-4.347 1.2-4.347-1.44-1.213 2.167-.724-.241-.966-4.334-2.655v-.483c4.752.41 9.46 1.231 15.172.966.816-1.713 2.46-3.563 2.167-5.554l-2.649 1.931.241-.725a20.54 20.54 0 0 0 7.465-10.384c-6.5-1.971-10.037-1.719-11.8-7.969H43.83V38.4l2.649-1.449-6.984-1.451c5.634-1.829 11.685-4.826 16.858-5.554 3.311-.466 6.578 1.263 10.114 0 2.566-.917 3.558-3.443 6.261-4.105l.963 2.173h.482c1.761-2.544 4.138-5.027 7.947-5.071zm61.409-13.04h1.2V15.7l-.241.242-1.685-.242.24-.966zm74.655.242c.359 2.5-2.8 3.215-2.409.724l.964-.724h1.445zm305.361 0h1.445l.241 1.69c-.6 1.117-.459 1.116-1.927 1.449l-.722-2.415zm-330.407.483-.241 1.932h-1.926l.722-1.932h1.445zm36.364 2.415h.723v1.69l-1.2-.242zm306.806 0h.723l-.241 1.69-.963-.242zm-453.707.482 1.2.966-.482.725h-1.44v-.484l.241-.724zM182.3 19.077h2.408l.241 1.449c-.46 1.681-.764 2.134-2.649 2.415l-.723-.724-.241-1.69zm-46 .241 2.167.724-.481 2.173c-1.524.608-1.749.189-2.89-.724l.24-1.207zm-63.1 1.449 2.167.483c1.032 1.3.523 2.092-.241 3.381h-1.2l-.723-.724v-3.139zm10.837.241.963.724-.241.966-1.445-.241zm2.89 2.656h1.686v1.207l-.241.241-1.445.241H86.7zM397.355 25.6c-.155 1.7-.13 1.45-1.445 1.932l-.482-1.69.241-.241h1.686zm-218.184.483zm396.873 1.207-1.445.966.482.241.241.483 2.89-1.449-2.409.725c.545-.835.746-.11.241-.968zm-416.139 1.93h1.2v.966l-1.445.724-.24-.241v-.483zm231.429 2.173c.148-1.89.459-2.12 1.927-1.932l-.482 1.932h-1.445zm75.377-2.173h1.2v.966l-.723.724h-.722q-.122-.362-.241-.724zm-77.062.724 1.2 1.449-.964 2.173-1.685.483a3.689 3.689 0 0 1-.964-3.139zM50.572 32.6l-.241.724.482-.724h-.241zm115.595 1.69c-.237 2.021-.754 1.965-1.927 2.9l-1.2-.483.241-1.932.481-.483h2.409zm-56.593.242c-5.535 5.407-21.711 3.374-29.621 6.762C77.894 42.176 66.558 60 65.5 63.269l5.539 1.691c3.642-3.82 10.887-2.815 15.172-1.208-.443 1.526-1 1.044.241 1.932l11.081.966-11.56 1.45c-3.995 1.1-9.075 5.342-12.282 6.279-6.507 1.9-12.705-.535-17.339 2.656l-8.188 12.556c-3.141 4.036-8.024 5.386-9.151 11.592 3.668-.349 6.416-1.52 8.91-2.174l6.984.483c8.066-1.541 18.419-7.088 28.176-4.347 2.567-5.326 5.833-7.629 8.91-11.833 4.29-5.86 6.185-11.723 10.114-18.112 2.516-4.09 6.036-5.987 9.392-9.176 1.863-1.771 7.862-14.781 9.392-17.87a35.681 35.681 0 0 0-11.317-3.621zm.24.242c.736.2.028.45-.24.724zm478.994 0c.735.2.027.45-.241.724l.241-.724zm-308.974 1.449-9.151 2.9.241 3.622-4.817.724v.966l2.893 1.93a5.123 5.123 0 0 1 4.335-.241l.241.241-1.686 3.622c4.195 4.076.991 13.542 5.539 17.146l.722.483c4.8-6.437 4.714-17.543 10.6-22.217 3.239-2.574 7.562-2.755 11.559-4.83l-9.392-1.207.482-.966-11.56.724v-.965l1.686-.724-.482-1.207h-1.2zm-244.915.966h1.2l-.241 1.449h-1.2V37.43zm472.01.483a40.7 40.7 0 0 1-14.45 2.415l-4.094 10.867-.241 7q-1.8 2.294-3.612 4.588L482.365 78q-2.048 6.157-4.094 12.316c1.7.747 2.957 1.248 3.371 3.381 7.023-10.273 10.866-22.189 17.1-33.325 4.156-7.426 8.988-14.294 11.559-22.7h-3.371zM219.87 39.121zm97.051 0-8.67 1.449-1.445 9.9-4.335 4.588c-1.612 2.752-4.265 5.632-5.3 8.211l-.963 5.071c-1.8 3.021-4.439 4.14-5.539 8.211l.723.483c13.794 1.3 30.063-10.51 34.919-19.319 3.6-6.528-3.184-18.399-9.39-18.594zm-276.7 2.173 1.927.483c-.509 1.65-1 2.145-2.89 2.415l-.486-1.692zM288.5 42.5c1.154.5.892.158.963 1.691l-1.2.241-.241-1.449zm237.931.966c-1.677 6.2-6.4 12.524-10.6 16.421v.483c2.1 1.54 11.846 2.7 13.727 0l1.926-4.588-2.649 1.932q.122-.362.241-.725c3.1-2.844 6.1-5.8 7.466-10.384v-.24c-4.38-.1-6.55-1.841-10.107-2.897zm-219.629.242.241.483zm-169.534 1.933-9.151 11.108-2.649 7-4.335 3.139-6.5 13.523c-2.553 4.092-5.774 7.045-7.706 12.074 2.063.5 1.44 1.055 1.926 1.932l7.947.483c7.924-7.808 38.123-25.766 27.695-41.777-1.656-2.535-4.134-6.506-7.227-7.482zm125.95.966 1.685 2.656c-.711 1.9-.489 2.877-1.2 5.313h-.963l-3.616-6.276c-3.431.5-5 .295-7.225-1.207-5.72 10.2-16.9 15.716-22.878 25.6l-3.853 11.591c-1.34 3.994-8.382 12.292-1.686 16.9 9.925 6.836 25.306-6.15 27.935-13.524 1.543-4.325 4.158-6.583 5.78-10.384l-.241-1.207c2.476-1.555 6.926-8.519 7.947-10.625l1.927-10.867h.481l2.168 1.932.241-.241c-.314-4.635-2.888-8.259-6.502-9.661zM30.584 60.372h.723v1.448H30.1v-.241zm208.07.242zm276.222.966-3.131 5.071c1.49.287 1.377.261 1.927 1.449l-.241.241c-1.2.812-1.692 1.477-2.89.483-7.04 11.193-14.939 23.919-19.507 36.948l14.209-4.347c3.893-3.046 12.634-20.59 14.69-26.322l-3.133-4.348c-.718-2.955 1.436-3.072-.481-5.554 1.278-.312 1.744-.262 2.408-1.207zm-51.054 24.631 6.02-23.666c-4.457 9.277-10.6 16.4-15.172 24.873zM273.573 63.994l.722 2.173-.722-2.173zm134.619 2.173-.963.966.24.242.241-.242zm-375.922.242 1.93.483.482.483-.241.966-1.686 1.207-1.445-.966zm283.447 2.415zm-232.874.966zm478.994 0zm-404.822 2.173zm94.161 4.347 1.445.242L252.14 78l-1.2.242zM411.563 85c-4.818 4.428-10.5 7.982-14.69 13.04l11.56-1.932.963-2.656c-.791.811-.6 1.022-1.927 1.449v-.238q2.048-4.83 4.094-9.663zM106.684 97.319zm478.993 0zm-478.271 4.105-6.5 1.691-.482 2.9zm-87.418 2.656zm478.993 0zM.722 107.944h1.445v.725l-.241.241-1.2.242v-1.208zm489.108 0-.963 1.691 3.371-1.449zm-103.553.725 1.927.966q-.122 1.207-.241 2.415l-2.89.724-.482-2.173zM4.816 112.533l2.408.241c-.107 2.4-1.876 3.031-3.131 1.449zm372.069 2.173.241-1.691 1.927-.241c-.185 1.814-.234 1.878-2.168 1.932zm80.916-1.932zm-387.24 3.381h1.686l-.241 1.69H70.32zm185.673 3.864z" style="fill-rule:evenodd"/></svg>