<svg width="45" height="45" viewBox="0 0 45 45" fill="none" xmlns="http://www.w3.org/2000/svg">
<path d="M36.5091 7.89531C32.7061 4.10547 27.6354 2 22.2829 2C11.1555 2 2.14085 10.9833 2.14085 22.0721C2.14085 25.5812 3.12683 29.0904 4.81707 32.038L2 42.425L12.7049 39.6177C15.6628 41.1617 18.9024 42.0039 22.2829 42.0039C33.4104 42.0039 42.425 33.0206 42.425 21.9318C42.2841 16.7383 40.3122 11.6852 36.5091 7.89531ZM32.0018 29.2307C31.5793 30.3536 29.6073 31.4766 28.6213 31.6169C27.7762 31.7573 26.6494 31.7573 25.5226 31.4766C24.8183 31.1958 23.8323 30.9151 22.7055 30.3536C17.6348 28.2482 14.3951 23.1951 14.1134 22.774C13.8317 22.4932 12.0006 20.107 12.0006 17.5805C12.0006 15.0539 13.2683 13.931 13.6909 13.3695C14.1134 12.8081 14.6768 12.8081 15.0994 12.8081C15.3811 12.8081 15.8037 12.8081 16.0854 12.8081C16.3671 12.8081 16.7896 12.6677 17.2122 13.6503C17.6348 14.6328 18.6207 17.1594 18.7616 17.2997C18.9024 17.5805 18.9024 17.8612 18.7616 18.1419C18.6207 18.4227 18.4799 18.7034 18.1982 18.9841C17.9165 19.2648 17.6348 19.6859 17.4939 19.8263C17.2122 20.107 16.9305 20.3878 17.2122 20.8089C17.4939 21.3703 18.4799 22.9143 20.0293 24.318C22.0012 26.0023 23.5506 26.5638 24.114 26.8445C24.6774 27.1253 24.9591 26.9849 25.2408 26.7042C25.5226 26.4234 26.5085 25.3005 26.7902 24.7391C27.072 24.1776 27.4945 24.318 27.9171 24.4583C28.3396 24.5987 30.875 25.862 31.2976 26.1427C31.861 26.4234 32.1427 26.5638 32.2835 26.7042C32.4244 27.1253 32.4244 28.1078 32.0018 29.2307Z" fill="white"/>
</svg>
