<svg width="45" height="45" viewBox="0 0 45 45" fill="none" xmlns="http://www.w3.org/2000/svg">
<path d="M22.25 6.47892C27.3524 6.47892 28.0482 6.47892 30.1355 6.47892C31.991 6.47892 32.9187 6.94277 33.6145 7.1747C34.5422 7.63856 35.238 7.87048 35.9337 8.56627C36.6295 9.26205 37.0934 9.95783 37.3253 10.8855C37.5572 11.5813 37.7892 12.509 38.0211 14.3645C38.0211 16.4518 38.0211 16.9157 38.0211 22.25C38.0211 27.5843 38.0211 28.0482 38.0211 30.1355C38.0211 31.991 37.5572 32.9187 37.3253 33.6145C36.8614 34.5422 36.6295 35.238 35.9337 35.9337C35.238 36.6295 34.5422 37.0934 33.6145 37.3253C32.9187 37.5572 31.991 37.7892 30.1355 38.0211C28.0482 38.0211 27.5843 38.0211 22.25 38.0211C16.9157 38.0211 16.4518 38.0211 14.3645 38.0211C12.509 38.0211 11.5813 37.5572 10.8855 37.3253C9.95783 36.8614 9.26205 36.6295 8.56627 35.9337C7.87048 35.238 7.40663 34.5422 7.1747 33.6145C6.94277 32.9187 6.71084 31.991 6.47892 30.1355C6.47892 28.0482 6.47892 27.5843 6.47892 22.25C6.47892 16.9157 6.47892 16.4518 6.47892 14.3645C6.47892 12.509 6.94277 11.5813 7.1747 10.8855C7.63856 9.95783 7.87048 9.26205 8.56627 8.56627C9.26205 7.87048 9.95783 7.40663 10.8855 7.1747C11.5813 6.94277 12.509 6.71084 14.3645 6.47892C16.4518 6.47892 17.1476 6.47892 22.25 6.47892ZM22.25 3C16.9157 3 16.4518 3 14.3645 3C12.2771 3 10.8855 3.46386 9.72591 3.92771C8.56627 4.39157 7.40663 5.08735 6.24699 6.24699C5.08735 7.40663 4.6235 8.33434 3.92771 9.72591C3.46386 10.8855 3.23193 12.2771 3 14.3645C3 16.4518 3 17.1476 3 22.25C3 27.5843 3 28.0482 3 30.1355C3 32.2229 3.46386 33.6145 3.92771 34.7741C4.39157 35.9337 5.08735 37.0934 6.24699 38.253C7.40663 39.4127 8.33434 39.8765 9.72591 40.5723C10.8855 41.0362 12.2771 41.2681 14.3645 41.5C16.4518 41.5 17.1476 41.5 22.25 41.5C27.3524 41.5 28.0482 41.5 30.1355 41.5C32.2229 41.5 33.6145 41.0362 34.7741 40.5723C35.9337 40.1084 37.0934 39.4127 38.253 38.253C39.4127 37.0934 39.8765 36.1657 40.5723 34.7741C41.0362 33.6145 41.2681 32.2229 41.5 30.1355C41.5 28.0482 41.5 27.3524 41.5 22.25C41.5 17.1476 41.5 16.4518 41.5 14.3645C41.5 12.2771 41.0362 10.8855 40.5723 9.72591C40.1084 8.56627 39.4127 7.40663 38.253 6.24699C37.0934 5.08735 36.1657 4.6235 34.7741 3.92771C33.6145 3.46386 32.2229 3.23193 30.1355 3C28.0482 3 27.5843 3 22.25 3Z" fill="white"/>
<path d="M22.25 12.2771C16.6837 12.2771 12.2771 16.6837 12.2771 22.25C12.2771 27.8163 16.6837 32.2229 22.25 32.2229C27.8163 32.2229 32.2229 27.8163 32.2229 22.25C32.2229 16.6837 27.8163 12.2771 22.25 12.2771ZM22.25 28.744C18.7711 28.744 15.756 25.9608 15.756 22.25C15.756 18.7711 18.5392 15.756 22.25 15.756C25.7289 15.756 28.744 18.5392 28.744 22.25C28.744 25.7289 25.7289 28.744 22.25 28.744Z" fill="white"/>
<path d="M32.4548 14.3645C33.7357 14.3645 34.7741 13.3261 34.7741 12.0452C34.7741 10.7643 33.7357 9.72591 32.4548 9.72591C31.1739 9.72591 30.1355 10.7643 30.1355 12.0452C30.1355 13.3261 31.1739 14.3645 32.4548 14.3645Z" fill="white"/>
</svg>
