<svg width="45" height="45" viewBox="0 0 45 45" fill="none" xmlns="http://www.w3.org/2000/svg">
<path d="M3.34291 5.48319L18.9702 23.2212C19.8603 24.2258 21.1445 24.8107 22.4797 24.8107C23.8148 24.8107 25.0991 24.2385 25.9891 23.2212L41.3494 5.78836C41.4766 5.64849 41.6292 5.53405 41.7817 5.44504C41.1332 5.1653 40.4085 5 39.6583 5H5.28838C4.5636 5 3.87696 5.13987 3.25391 5.40689C3.27934 5.43233 3.30476 5.45776 3.3302 5.48319H3.34291Z" fill="white"/>
<path d="M44.1608 7.49219C44.0972 7.6702 43.9955 7.84822 43.8556 8.00081L28.4953 25.4337C26.9695 27.163 24.7824 28.1548 22.4809 28.1548C20.1794 28.1548 17.9924 27.163 16.4665 25.4337L0.839225 7.69563C0.839225 7.69563 0.788356 7.61934 0.762925 7.5812C0.279738 8.38227 0 9.3105 0 10.315V34.3218C0 37.2591 2.37779 39.6369 5.31506 39.6369H39.6849C42.6222 39.6369 45 37.2591 45 34.3218V10.315C45 9.27235 44.6948 8.31869 44.1862 7.49219H44.1608Z" fill="white"/>
</svg>
