<svg width="24" height="24" viewBox="0 0 24 24" fill="none" xmlns="http://www.w3.org/2000/svg">
<path d="M8.9235 0C6.6363 0 4.34886 0.86976 2.6091 2.60904C-0.8697 6.08784 -0.8697 11.7583 2.6091 15.2371C5.8659 18.4934 11.0331 18.6852 14.534 15.8438L15.3922 16.7021C15.3437 16.8766 15.3324 17.0445 15.3592 17.1943C15.3859 17.344 15.4501 17.4719 15.5473 17.5692L21.7755 23.7974C21.9536 23.9755 22.2309 24.0397 22.5464 23.9759C22.8619 23.9122 23.1898 23.7257 23.4579 23.4576C23.726 23.1895 23.9125 22.8616 23.9762 22.5461C24.04 22.2306 23.9758 21.9533 23.7977 21.7752L17.5697 15.5472C17.4724 15.4499 17.3444 15.3856 17.1946 15.3588C17.0447 15.332 16.8766 15.3433 16.7019 15.3919L15.8437 14.5337C18.685 11.0326 18.494 5.86536 15.2374 2.60904C13.4981 0.86976 11.2107 0 8.9235 0ZM8.9235 1.97208C10.6988 1.97208 12.4743 2.65224 13.8346 4.01256C14.4813 4.65646 14.9945 5.42175 15.3446 6.26449C15.6948 7.10724 15.875 8.01085 15.875 8.92344C15.875 9.83603 15.6948 10.7396 15.3446 11.5824C14.9945 12.4251 14.4813 13.1904 13.8346 13.8343C13.1907 14.481 12.4254 14.9942 11.5827 15.3443C10.7399 15.6945 9.83633 15.8747 8.92374 15.8747C8.01115 15.8747 7.10754 15.6945 6.26479 15.3443C5.42205 14.9942 4.65676 14.481 4.01286 13.8343C3.36616 13.1904 2.853 12.4251 2.50286 11.5824C2.15271 10.7396 1.97246 9.83603 1.97246 8.92344C1.97246 8.01085 2.15271 7.10724 2.50286 6.26449C2.853 5.42175 3.36616 4.65646 4.01286 4.01256C5.37294 2.65224 7.14846 1.97208 8.9235 1.97208Z" fill="#888"/>
</svg>
