<svg width="44" height="50" viewBox="0 0 44 50" fill="none" xmlns="http://www.w3.org/2000/svg"><path d="M3.504 0.316368L42.129 22.6164C43.686 23.5154 43.686 25.7634 42.129 26.6624L3.504 48.9624C1.947 49.8614 0 48.7374 0 46.9394V2.33937C0 0.541369 1.946 -0.582632 3.504 0.316368Z" fill="white"/><path d="M42.1288 22.6176L3.50378 0.317595C3.27078 0.183595 3.02978 0.107594 2.78778 0.0585938L40.1288 21.6176C41.6858 22.5166 41.6858 24.7646 40.1288 25.6636L1.50378 47.9636C1.15478 48.1646 0.787781 48.2516 0.425781 48.2646C1.08178 49.2026 2.38678 49.6076 3.50378 48.9636L42.1288 26.6636C43.6858 25.7646 43.6858 23.5166 42.1288 22.6176Z" fill="black"/></svg>